<?xml version="1.0" encoding="UTF-8" standalone="no"?>
<!DOCTYPE svg PUBLIC "-//W3C//DTD SVG 1.1//EN" "http://www.w3.org/Graphics/SVG/1.1/DTD/svg11.dtd">
<svg width="100%" height="100%" viewBox="0 0 844 332" version="1.1" xmlns="http://www.w3.org/2000/svg" xmlns:xlink="http://www.w3.org/1999/xlink" xml:space="preserve" xmlns:serif="http://www.serif.com/" style="fill-rule:evenodd;clip-rule:evenodd;stroke-linejoin:round;stroke-miterlimit:2;">
    <g transform="matrix(0.585366,0,0,0.587915,-86.9838,-26.1148)">
        <path d="M404.735,422.031L404.735,413.054L445.283,413.054L457.022,398.058L404.735,398.058L404.735,390.166L447.453,390.166L460.673,373L384.215,373L384.215,439L447.749,439L460.87,422.031L404.735,422.031Z" style="fill:white;fill-rule:nonzero;"/>
        <path d="M535.157,373L513.946,393.52L492.933,373L464.619,373L484.843,391.942C495.202,401.61 497.767,403.879 500.233,405.655C497.767,407.529 494.906,409.897 484.843,419.17L463.336,439L488.691,439L511.874,417.197L534.368,439L563.175,439L542.063,419.17C531.408,409.206 528.448,406.444 526.081,404.865C528.547,402.991 531.605,400.327 540.78,392.04L561.596,373L535.157,373Z" style="fill:white;fill-rule:nonzero;"/>
        <path d="M657.587,397.762C657.587,383.063 645.65,373 625.229,373L583.794,373L570.278,390.166L627.103,390.166C633.417,390.166 637.067,393.027 637.067,397.664C637.067,402.202 633.417,405.26 627.103,405.26L570.278,405.26L570.278,439L590.601,439L590.601,422.13L625.13,422.13C645.65,422.13 657.587,412.363 657.587,397.762Z" style="fill:white;fill-rule:nonzero;"/>
        <path d="M688.368,422.031L688.368,373L667.946,373L667.946,439L726.251,439L739.471,422.031L688.368,422.031Z" style="fill:white;fill-rule:nonzero;"/>
        <path d="M789.883,371.915C757.722,371.915 741.641,382.372 741.641,405.951C741.641,429.529 757.722,440.085 789.883,440.085C821.946,440.085 838.126,429.529 838.126,405.951C838.126,382.372 821.946,371.915 789.883,371.915ZM789.883,422.919C769.363,422.919 761.964,420.157 761.964,405.951C761.964,391.744 769.363,389.081 789.883,389.081C810.404,389.081 817.803,391.744 817.803,405.951C817.803,420.157 810.404,422.919 789.883,422.919Z" style="fill:white;fill-rule:nonzero;"/>
        <path d="M929.973,426.175C925.435,421.538 922.969,419.17 920.7,417.493C931.552,415.323 937.964,406.839 937.964,396.578C937.964,377.735 919.022,373 904.027,373L861.605,373L848.287,390.166L905.704,390.166C912.709,390.166 916.951,392.731 916.951,397.861C916.951,402.399 912.018,405.26 905.704,405.26L848.287,405.26L848.287,439L868.709,439L868.709,421.538L900.081,421.538L914.78,439L942.108,439L929.973,426.175Z" style="fill:white;fill-rule:nonzero;"/>
        <path d="M1054.08,439L1012.84,379.314C1009.98,375.17 1005.94,371.915 999.821,371.915C993.408,371.915 989.363,375.466 986.601,379.314L944.278,439L968.448,439L999.426,395.197L1011.26,412.659C1013.44,415.816 1016.2,419.861 1017.97,422.229C1014.82,422.031 1010.18,422.031 1006.23,422.031L989.659,422.031L977.327,439L1054.08,439Z" style="fill:white;fill-rule:nonzero;"/>
        <path d="M1047.27,373L1034.05,390.166L1065.03,390.166L1065.03,439L1085.45,439L1085.45,390.166L1109.03,390.166L1122.25,373L1047.27,373Z" style="fill:white;fill-rule:nonzero;"/>
        <rect x="1128.76" y="373" width="20.422" height="66" style="fill:white;fill-rule:nonzero;"/>
        <path d="M1208.08,371.915C1175.92,371.915 1159.84,382.372 1159.84,405.951C1159.84,429.529 1175.92,440.085 1208.08,440.085C1240.14,440.085 1256.32,429.529 1256.32,405.951C1256.32,382.372 1240.14,371.915 1208.08,371.915ZM1208.08,422.919C1187.56,422.919 1180.16,420.157 1180.16,405.951C1180.16,391.744 1187.56,389.081 1208.08,389.081C1228.6,389.081 1236,391.744 1236,405.951C1236,420.157 1228.6,422.919 1208.08,422.919Z" style="fill:white;fill-rule:nonzero;"/>
        <path d="M1333.57,440.085C1339.49,440.085 1344.82,436.435 1344.82,427.655L1344.82,373L1326.17,373L1326.17,411.771L1285.72,375.466C1282.47,372.507 1280,371.915 1277.53,371.915C1271.71,371.915 1266.39,375.466 1266.39,384.247L1266.39,439L1284.93,439L1284.93,400.229L1325.38,436.534C1328.54,439.493 1331,440.085 1333.57,440.085Z" style="fill:white;fill-rule:nonzero;"/>
        <path d="M401.682,506.056C398.226,506.056 396.57,505.12 396.57,502.672C396.57,500.224 398.226,499.36 401.682,499.36L435.09,499.36L444.666,486.832L402.834,486.832C388.218,486.832 382.17,492.736 382.17,501.808C382.17,510.088 387.858,515.632 400.242,515.632L426.45,515.632C429.978,515.632 431.562,516.64 431.562,519.088C431.562,521.608 429.978,522.616 426.45,522.616L390.018,522.616L380.442,535L425.298,535C439.986,535 445.962,529.096 445.962,519.232C445.962,510.448 439.626,506.056 427.89,506.056L401.682,506.056Z" style="fill:white;fill-rule:nonzero;"/>
        <path d="M583.122,486.832L572.178,500.152C568.722,504.328 567.066,506.416 566.13,507.784C565.122,506.344 561.09,501.952 559.578,500.224L548.058,486.832L528.906,486.832L558.282,519.016L558.282,535L573.258,535L573.258,519.088L601.842,486.832L583.122,486.832Z" style="fill:white;fill-rule:nonzero;"/>
        <path d="M701.346,506.056C697.89,506.056 696.234,505.12 696.234,502.672C696.234,500.224 697.89,499.36 701.346,499.36L734.754,499.36L744.33,486.832L702.498,486.832C687.882,486.832 681.834,492.736 681.834,501.808C681.834,510.088 687.522,515.632 699.906,515.632L726.114,515.632C729.642,515.632 731.226,516.64 731.226,519.088C731.226,521.608 729.642,522.616 726.114,522.616L689.682,522.616L680.106,535L724.962,535C739.65,535 745.626,529.096 745.626,519.232C745.626,510.448 739.29,506.056 727.554,506.056L701.346,506.056Z" style="fill:white;fill-rule:nonzero;"/>
        <path d="M833.322,486.832L823.674,499.36L846.282,499.36L846.282,535L861.186,535L861.186,499.36L878.394,499.36L888.042,486.832L833.322,486.832Z" style="fill:white;fill-rule:nonzero;"/>
        <path d="M987.834,522.616L987.834,516.064L1017.43,516.064L1025.99,505.12L987.834,505.12L987.834,499.36L1019.01,499.36L1028.66,486.832L972.858,486.832L972.858,535L1019.23,535L1028.8,522.616L987.834,522.616Z" style="fill:white;fill-rule:nonzero;"/>
        <path d="M1139.75,491.152C1138.03,487.984 1135.43,486.04 1131.62,486.04C1127.87,486.04 1124.49,488.2 1123.19,492.664L1110.74,535L1125.35,535L1129.89,518.224C1131.33,512.824 1132.41,508.792 1133.13,504.976C1134.64,508.216 1136.37,511.6 1139.9,518.224L1146.38,530.392C1148.9,535.144 1151.35,535.792 1154.95,535.792C1158.55,535.792 1160.99,535.144 1163.51,530.392L1169.99,518.296C1173.31,512.032 1175.11,508.36 1176.69,504.976C1177.48,508.864 1178.49,512.752 1180,518.224L1184.54,535L1199.37,535L1187.2,492.664C1185.91,488.2 1182.59,486.04 1178.85,486.04C1174.96,486.04 1172.37,488.056 1170.64,491.152L1162.94,504.832C1158.69,512.248 1156.82,515.776 1155.23,519.16C1153.58,515.776 1151.71,512.176 1147.46,504.76L1139.75,491.152Z" style="fill:white;fill-rule:nonzero;"/>
        <path d="M1303.55,506.056C1300.1,506.056 1298.44,505.12 1298.44,502.672C1298.44,500.224 1300.1,499.36 1303.55,499.36L1336.96,499.36L1346.54,486.832L1304.71,486.832C1290.09,486.832 1284.04,492.736 1284.04,501.808C1284.04,510.088 1289.73,515.632 1302.11,515.632L1328.32,515.632C1331.85,515.632 1333.43,516.64 1333.43,519.088C1333.43,521.608 1331.85,522.616 1328.32,522.616L1291.89,522.616L1282.31,535L1327.17,535C1341.86,535 1347.83,529.096 1347.83,519.232C1347.83,510.448 1341.5,506.056 1329.76,506.056L1303.55,506.056Z" style="fill:white;fill-rule:nonzero;"/>
    </g>
    <g transform="matrix(0.595854,0,0,0.598448,-150.461,94.6818)">
        <path d="M252.514,396.12C330.624,78.035 617.94,-158.212 960,-158.212C1302.06,-158.212 1589.38,78.035 1667.49,396.12C1579.92,129.27 1296.14,-71.351 960,-71.351C623.855,-71.351 340.083,129.27 252.514,396.12Z" style="fill:white;"/>
    </g>
</svg>
