<svg width="2248" height="648" viewBox="0 0 2248 648" fill="none" xmlns="http://www.w3.org/2000/svg">
<path d="M49 304.5H139V325.75H49V304.5ZM51.25 382.25H153.25V404H26.25V229H149.75V250.75H51.25V382.25ZM196.271 404L258.021 322.75V339.75L199.521 262H226.771L270.521 321H259.271L303.021 262H330.021L272.521 338.75V323.5L333.021 404H305.021L259.271 341.75H270.271L224.021 404H196.271ZM388.088 404V262H446.088C458.588 262 469.338 264 478.338 268C487.338 271.833 494.338 277.5 499.338 285C504.338 292.333 506.838 301.333 506.838 312C506.838 322.5 504.338 331.5 499.338 339C494.338 346.5 487.338 352.25 478.338 356.25C469.338 360.25 458.588 362.25 446.088 362.25H401.588L412.338 350.75V404H388.088ZM412.338 353.5L403.088 342H444.588C456.921 342 466.255 339.417 472.588 334.25C479.088 329.083 482.338 321.667 482.338 312C482.338 302.333 479.088 294.917 472.588 289.75C466.255 284.583 456.921 282 444.588 282H403.088L412.338 270.5V353.5ZM591.6 322H666.35V341.75H591.6V322ZM595.6 383.75H677.85V404H571.35V262H675.1V282H595.6V383.75ZM741.428 404V262H803.178C819.178 262 833.011 264.917 844.678 270.75C856.511 276.583 865.594 284.833 871.928 295.5C878.428 306.167 881.678 318.667 881.678 333C881.678 347.333 878.428 359.833 871.928 370.5C865.594 381.167 856.511 389.417 844.678 395.25C833.011 401.083 819.178 404 803.178 404H741.428ZM765.678 383.75H802.178C813.844 383.75 823.761 381.75 831.928 377.75C840.094 373.583 846.344 367.667 850.678 360C855.011 352.333 857.178 343.333 857.178 333C857.178 322.5 855.011 313.5 850.678 306C846.344 298.333 840.094 292.417 831.928 288.25C823.761 284.083 813.844 282 802.178 282H765.678V383.75ZM944.465 404V262H968.715V404H944.465ZM1069.72 404V282H1021.22V262H1142.47V282H1093.97V404H1069.72ZM1195.27 404V262H1219.52V404H1195.27ZM1359.28 406C1344.61 406 1331.44 402.833 1319.78 396.5C1308.11 390.167 1298.86 381.5 1292.03 370.5C1285.36 359.333 1282.03 346.75 1282.03 332.75C1282.03 318.917 1285.36 306.5 1292.03 295.5C1298.86 284.5 1308.11 275.833 1319.78 269.5C1331.44 263.167 1344.61 260 1359.28 260C1374.11 260 1387.28 263.167 1398.78 269.5C1410.44 275.833 1419.61 284.5 1426.28 295.5C1433.11 306.5 1436.53 318.917 1436.53 332.75C1436.53 346.75 1433.11 359.333 1426.28 370.5C1419.61 381.5 1410.44 390.167 1398.78 396.5C1387.28 402.833 1374.11 406 1359.28 406ZM1359.28 385C1369.44 385 1378.44 382.75 1386.28 378.25C1394.28 373.75 1400.53 367.583 1405.03 359.75C1409.69 351.75 1412.03 342.833 1412.03 333C1412.03 322.833 1409.69 313.917 1405.03 306.25C1400.53 298.417 1394.28 292.25 1386.28 287.75C1378.44 283.25 1369.44 281 1359.28 281C1349.28 281 1340.28 283.25 1332.28 287.75C1324.28 292.083 1317.94 298.167 1313.28 306C1308.78 313.833 1306.53 322.833 1306.53 333C1306.53 342.833 1308.78 351.75 1313.28 359.75C1317.94 367.583 1324.28 373.75 1332.28 378.25C1340.28 382.75 1349.28 385 1359.28 385ZM1499.29 404V262H1519.29L1610.54 374H1601.29V262H1625.54V404H1605.54L1514.04 292H1523.54V404H1499.29Z" fill="white"/>
<path fill-rule="evenodd" clip-rule="evenodd" d="M1966.82 316.798C2010.87 371.264 2098.32 498.324 2098.32 498.324C2098.32 498.324 1971.86 411.828 1916.73 366.892C1816.28 462.022 1600 648 1600 648C1600 648 1785.98 431.723 1881.11 331.274C1836.17 276.146 1749.67 149.674 1749.67 149.674C1749.67 149.674 1876.74 237.129 1931.2 281.177C2031.62 186.067 2248 0 2248 0C2248 0 2061.93 216.382 1966.82 316.798Z" fill="white"/>
</svg>
