<svg width="777" height="361" viewBox="0 0 777 361" fill="none" xmlns="http://www.w3.org/2000/svg">
<path fill-rule="evenodd" clip-rule="evenodd" d="M20.8076 222.699L20.8076 252.5C20.8076 255.261 23.0462 257.5 25.8076 257.5H206.318C209.079 257.5 211.318 255.261 211.318 252.5V217.94H68.6476V197.01H202.348V162.05H77.9803C56.6682 180.385 37.5873 200.71 20.8076 222.699ZM101.172 143.545L210.858 143.19V108.63C210.858 105.869 208.619 103.63 205.858 103.63L167.435 103.63C143.632 115.116 121.528 128.497 101.172 143.545ZM612.726 104.384C577.009 108.16 561.928 125.865 561.928 151.47C561.928 177.92 580.098 195.63 619.658 195.63H703.378C714.648 195.63 719.708 198.85 719.708 206.67C719.708 214.72 714.648 217.94 703.378 217.94H586.998L562.639 249.441C560.098 252.728 562.44 257.5 566.594 257.5H699.698C733.839 257.5 753.245 247.514 761.283 229.935C744.23 206.218 724.812 184.492 703.052 165.04H624.258C613.218 165.04 607.928 162.05 607.928 154.23C607.928 146.41 613.218 143.65 624.258 143.65H676.945C657.177 128.828 635.767 115.683 612.726 104.384ZM731.336 143.182C719.941 129.284 707.53 116.07 694.232 103.63L751.452 103.63C755.594 103.63 757.94 108.376 755.425 111.666L731.336 143.182ZM84.7144 103.63C60.2118 126.419 38.6473 151.727 20.8076 178.934V108.63C20.8076 105.869 23.0462 103.63 25.8076 103.63L84.7144 103.63ZM439.68 103.63H488.446C493.008 103.63 495.192 109.219 491.811 112.283L491.014 113.004L491 113C491 113 444.225 146.272 397 189C370.733 212.765 345.249 240.246 329.841 257.5H285.039C280.486 257.5 278.307 251.917 281.666 248.844C299.737 232.309 318.503 215.466 336.396 199.406L336.397 199.405L336.409 199.395L336.412 199.392L336.413 199.391L336.481 199.33L336.5 199.313C343.942 192.633 351.233 186.09 358.26 179.76C358.26 179.76 302.232 128.919 275.23 103.63H341.24L390.23 151.47L439.68 103.63ZM409 198C413.364 194.297 419.002 189.527 425.356 184.156C441.647 199.028 483.032 236.867 505 257.5H437.84L392.756 213.8C398.448 207.726 403.996 202.246 409 198Z" fill="white"/>
<path fill-rule="evenodd" clip-rule="evenodd" d="M775.177 233.5C704.678 116.219 552.715 38 388.382 38C224.385 38 72.1739 117.246 1.73592 233.5H0C73.5534 87.8964 215.187 0 388.382 0C561.32 0 703.067 89.0845 776.561 233.5H775.177Z" fill="white"/>
<path d="M33.653 342.104H58.12L52.401 349.5H24.709V320.733H58.034L52.272 328.215H33.653V331.655H56.443L51.326 338.191H33.653V342.104ZM90.4842 320.733H102.008L92.9352 329.032C88.9362 332.644 87.6032 333.805 86.5282 334.622C87.5602 335.31 88.8502 336.514 93.4942 340.857L102.696 349.5H90.1402L80.3362 339.997L70.2312 349.5H59.1802L68.5542 340.857C72.9402 336.815 74.1872 335.783 75.2622 334.966C74.1872 334.192 73.0692 333.203 68.5542 328.989L59.7392 320.733H72.0802L81.2392 329.677L90.4842 320.733ZM143.849 331.526C143.849 337.89 138.646 342.147 129.702 342.147H114.652V349.5H105.794V334.794H130.562C133.314 334.794 134.905 333.461 134.905 331.483C134.905 329.462 133.314 328.215 130.562 328.215H105.794L111.685 320.733H129.745C138.646 320.733 143.849 325.119 143.849 331.526ZM157.277 342.104H179.551L173.789 349.5H148.376V320.733H157.277V342.104ZM201.506 320.26C215.481 320.26 222.533 324.818 222.533 335.095C222.533 345.372 215.481 349.973 201.506 349.973C187.488 349.973 180.479 345.372 180.479 335.095C180.479 324.818 187.488 320.26 201.506 320.26ZM201.506 342.491C210.45 342.491 213.675 341.287 213.675 335.095C213.675 328.903 210.45 327.742 201.506 327.742C192.562 327.742 189.337 328.903 189.337 335.095C189.337 341.287 192.562 342.491 201.506 342.491ZM262.545 343.91L267.834 349.5H255.923L249.516 341.889H235.842V349.5H226.941V334.794H251.967C254.719 334.794 256.869 333.547 256.869 331.569C256.869 329.333 255.02 328.215 251.967 328.215H226.941L232.746 320.733H251.236C257.772 320.733 266.028 322.797 266.028 331.01C266.028 335.482 263.233 339.18 258.503 340.126C259.492 340.857 260.567 341.889 262.545 343.91ZM316.658 349.5H283.204L288.579 342.104H295.803C297.523 342.104 299.544 342.104 300.92 342.19C300.146 341.158 298.942 339.395 297.996 338.019L292.836 330.408L279.334 349.5H268.799L287.246 323.485C288.45 321.808 290.213 320.26 293.008 320.26C295.674 320.26 297.437 321.679 298.684 323.485L316.658 349.5ZM313.687 320.733H346.367L340.605 328.215H330.328V349.5H321.427V328.215H307.925L313.687 320.733ZM358.087 320.733V349.5H349.186V320.733H358.087ZM383.752 320.26C397.727 320.26 404.779 324.818 404.779 335.095C404.779 345.372 397.727 349.973 383.752 349.973C369.734 349.973 362.725 345.372 362.725 335.095C362.725 324.818 369.734 320.26 383.752 320.26ZM383.752 342.491C392.696 342.491 395.921 341.287 395.921 335.095C395.921 328.903 392.696 327.742 383.752 327.742C374.808 327.742 371.583 328.903 371.583 335.095C371.583 341.287 374.808 342.491 383.752 342.491ZM438.427 349.973C437.309 349.973 436.234 349.715 434.858 348.425L417.228 332.601V349.5H409.144V325.635C409.144 321.808 411.466 320.26 414.003 320.26C415.078 320.26 416.153 320.518 417.572 321.808L435.202 337.632V320.733H443.329V344.555C443.329 348.382 441.007 349.973 438.427 349.973ZM476.047 332.214H491.699C498.708 332.214 502.492 334.837 502.492 340.083C502.492 345.974 498.923 349.5 490.151 349.5H463.362L469.081 342.104H490.839C492.946 342.104 493.892 341.502 493.892 339.997C493.892 338.535 492.946 337.933 490.839 337.933H475.187C467.791 337.933 464.394 334.622 464.394 329.677C464.394 324.259 468.006 320.733 476.735 320.733H501.718L495.999 328.215H476.047C473.983 328.215 472.994 328.731 472.994 330.193C472.994 331.655 473.983 332.214 476.047 332.214ZM536.457 320.733H547.637L530.566 339.997V349.5H521.622V339.954L504.078 320.733H515.516L522.396 328.731C523.299 329.763 525.707 332.386 526.309 333.246C526.868 332.429 527.857 331.182 529.921 328.688L536.457 320.733ZM559.15 332.214H574.802C581.811 332.214 585.595 334.837 585.595 340.083C585.595 345.974 582.026 349.5 573.254 349.5H546.465L552.184 342.104H573.942C576.049 342.104 576.995 341.502 576.995 339.997C576.995 338.535 576.049 337.933 573.942 337.933H558.29C550.894 337.933 547.497 334.622 547.497 329.677C547.497 324.259 551.109 320.733 559.838 320.733H584.821L579.102 328.215H559.15C557.086 328.215 556.097 328.731 556.097 330.193C556.097 331.655 557.086 332.214 559.15 332.214ZM590.037 320.733H622.717L616.955 328.215H606.678V349.5H597.777V328.215H584.275L590.037 320.733ZM634.351 342.104H658.818L653.099 349.5H625.407V320.733H658.732L652.97 328.215H634.351V331.655H657.141L652.024 338.191H634.351V342.104ZM677.121 323.313L681.722 331.44C684.259 335.869 685.377 338.019 686.366 340.04C687.312 338.019 688.43 335.912 690.967 331.483L695.568 323.313C696.6 321.464 698.148 320.26 700.47 320.26C702.706 320.26 704.684 321.55 705.458 324.216L712.725 349.5H703.867L701.158 339.481C700.255 336.213 699.653 333.891 699.18 331.569C698.234 333.59 697.159 335.783 695.181 339.524L691.311 346.748C689.806 349.586 688.344 349.973 686.194 349.973C684.044 349.973 682.582 349.586 681.077 346.748L677.207 339.481C675.1 335.525 674.068 333.504 673.165 331.569C672.735 333.848 672.09 336.256 671.23 339.481L668.521 349.5H659.792L667.231 324.216C668.005 321.55 670.026 320.26 672.262 320.26C674.541 320.26 676.089 321.421 677.121 323.313ZM726.992 332.214H742.644C749.653 332.214 753.437 334.837 753.437 340.083C753.437 345.974 749.868 349.5 741.096 349.5H714.307L720.026 342.104H741.784C743.891 342.104 744.837 341.502 744.837 339.997C744.837 338.535 743.891 337.933 741.784 337.933H726.132C718.736 337.933 715.339 334.622 715.339 329.677C715.339 324.259 718.951 320.733 727.68 320.733H752.663L746.944 328.215H726.992C724.928 328.215 723.939 328.731 723.939 330.193C723.939 331.655 724.928 332.214 726.992 332.214Z" fill="white"/>
</svg>
